# xmcd
#
# Track frame offsets: 
#        150
#        16355
#        21802
#        34982
#
# Disc length: 663 seconds
#
# Revision: 0
# Processed by: cddbd v1.5PL3 Copyright (c) Steve Scherf et al.
# Submitted via: ExactAudioCopy v0.95a3
#
DISCID=28029504
DTITLE=Nicotine - Fitness Dayz
DYEAR=2001
DGENRE=Punk Rock
TTITLE0=fitness dayz
TTITLE1=smoke a cigarette
TTITLE2=aquarious
TTITLE3=fitness dayz[lesson2]
EXTD=
EXTT0=
EXTT1=
EXTT2=
EXTT3=
PLAYORDER=
